# xmcd CD database file
# 
# Track frame offsets:
# 	150
# 	14480
# 	30647
# 	45832
# 	58932
# 	75190
# 	84102
# 	101832
# 	115722
# 	130725
# 	145792
# 	158975
# 	167165
# 	183895
# 	199215
# 	213767
# 
# Disc length: 3012 seconds
# 
# Submitted via: Nero 5.5.7.3
# 
# Revision: 0
# Processed by: cddbd v1.4PL0 Copyright (c) Steve Scherf et al.
#
DISCID=c40bc210
DTITLE=La Touche - On The Bayou
DYEAR=1900
DGENRE=
TTITLE0=Ti Joe Bicycle
TTITLE1=Waltz of the Little One
TTITLE2=Road Back to You
TTITLE3=Lover's Waltz
TTITLE4=Pole the Pirogue
TTITLE5=Potbelly Polka
TTITLE6=Valse du Cable Raide
TTITLE7=Long Way Home
TTITLE8=River Road
TTITLE9=A Child's Gift [The Cajun Life]
TTITLE10=Zimmerman
TTITLE11=Taz's Two-step
TTITLE12=Engagement Waltz
TTITLE13=Cane Pole Fishin'
TTITLE14=Cayenne Pepper Waltz
TTITLE15=Passer Bouteille
EXTD=
EXTT0=
EXTT1=
EXTT2=
EXTT3=
EXTT4=
EXTT5=
EXTT6=
EXTT7=
EXTT8=
EXTT9=
EXTT10=
EXTT11=
EXTT12=
EXTT13=
EXTT14=
EXTT15=
PLAYORDER=
